<?xml version="1.0" encoding="iso-8859-1"?>
<!-- Uploaded to: SVG Repo, www.svgrepo.com, Generator: SVG Repo Mixer Tools -->
<svg version="1.1" id="Layer_1" xmlns="http://www.w3.org/2000/svg" xmlns:xlink="http://www.w3.org/1999/xlink" 
	 viewBox="0 0 508.025 508.025" xml:space="preserve">
<path style="fill:#54C0EB;" d="M254.012,348.025l241.7,152.2c7.5-6.2,12.2-15.5,12.2-26v-286.2L254.012,348.025z"/>
<path style="fill:#84DBFF;" d="M0.013,188.025v286.2c0,10.5,4.8,19.8,12.3,26c5.9,4.8,13.4,7.8,21.6,7.8h440.2
	c8.2,0,15.7-2.9,21.6-7.8L0.013,188.025z"/>
<path style="fill:#40596B;" d="M266.513,4.125c-7.5-5.5-17.6-5.5-25.1,0l-241.4,183.9l49.8,31.4l24.5,15.5l179.7,113.1l179.7-113.2
	l24.5-15.4l49.8-31.4L266.513,4.125z"/>
<path style="fill:#F2F2F2;" d="M371.013,33.825h-300c-11.7,0-21.2,9.4-21.2,21.1v164.5l24.5,15.5l179.7,113.1l179.7-113.2l24.5-15.4
	v-98.8L371.013,33.825z"/>
<g>
	<path style="fill:#CDD6E0;" d="M371.013,33.825v65.8c0,11.6,9.5,21.1,21.2,21.1h66L371.013,33.825z"/>
	<rect x="137.012" y="100.325" style="fill:#CDD6E0;" width="173.7" height="20.3"/>
	<rect x="137.012" y="161.125" style="fill:#CDD6E0;" width="234" height="20.3"/>
	<rect x="137.012" y="221.925" style="fill:#CDD6E0;" width="234" height="20.3"/>
</g>
</svg>