<?xml version="1.0" encoding="iso-8859-1"?>
<!-- Uploaded to: SVG Repo, www.svgrepo.com, Generator: SVG Repo Mixer Tools -->
<svg version="1.1" id="Layer_1" xmlns="http://www.w3.org/2000/svg" xmlns:xlink="http://www.w3.org/1999/xlink" 
	 viewBox="0 0 512 512" xml:space="preserve">
<path style="fill:#6B7A99;" d="M473.043,411.826V395.13V16.696C473.043,7.473,466.245,0,457.866,0H128v411.826h41.486
	C174.996,411.826,468.211,411.826,473.043,411.826z"/>
<path style="fill:#3AACE6;" d="M105.739,0C68.913,0,38.957,29.956,38.957,66.783v378.435c0,9.223,7.479,16.696,16.696,16.696
	s16.696-7.473,16.696-16.696c0-18.413,14.978-33.391,33.391-33.391h33.391V0H105.739z"/>
<g>
	<path style="fill:#5A6680;" d="M457.866,0H294.957v400.696h178.087v-384C473.043,7.473,466.245,0,457.866,0z"/>
	<path style="fill:#5A6680;" d="M456.348,512H105.739c-36.826,0-66.783-29.956-66.783-66.783s29.956-66.783,66.783-66.783h350.609
		c9.217,0,16.696,7.473,16.696,16.696v100.174C473.043,504.527,465.565,512,456.348,512z"/>
</g>
<path style="fill:#FFEFD9;" d="M105.739,411.826c-18.413,0-33.391,14.978-33.391,33.391s14.978,33.391,33.391,33.391h367.304
	v-66.783H105.739z"/>
<rect x="294.957" y="411.826" style="fill:#FFD9B3;" width="178.087" height="66.783"/>
<path style="fill:#FFC033;" d="M300.522,337.902c-64.445,0-116.87-52.429-116.87-116.87c0-42.337,23.348-81.461,60.946-102.103
	c12.403-6.829,27.331,4.065,24.37,18.093c-1.218,5.75-1.837,11.549-1.837,17.229c0,46.032,37.446,83.478,83.478,83.478
	c13.587,0,27-3.582,39.848-10.642c12.487-6.883,27.32,4.145,24.38,18.06C403.554,298.891,355.478,337.902,300.522,337.902z"/>
<g>
	<path style="fill:#F9A926;" d="M294.957,337.621c1.858,0.088,3.688,0.282,5.565,0.282c54.957,0,103.032-39.011,114.315-92.755
		c2.941-13.915-11.894-24.943-24.38-18.06c-12.848,7.06-26.261,10.642-39.848,10.642c-21.392,0-40.865-8.155-55.652-21.432
		L294.957,337.621L294.957,337.621z"/>
	<path style="fill:#F9A926;" d="M415.549,103.634c-1.965-6.044-7.188-10.449-13.477-11.362l-13.457-1.956l-6.017-12.193
		c-2.813-5.699-8.616-9.306-14.972-9.306s-12.159,3.607-14.972,9.306l-6.017,12.193l-13.456,1.956
		c-6.289,0.913-11.514,5.318-13.477,11.363c-1.965,6.044-0.326,12.679,4.225,17.114l9.736,9.491l-2.297,13.401
		c-1.074,6.264,1.501,12.593,6.643,16.329c5.132,3.728,11.95,4.233,17.583,1.27l12.034-6.327l12.035,6.328
		c5.626,2.956,12.442,2.464,17.583-1.271s7.717-10.066,6.643-16.329l-2.297-13.401l9.736-9.491
		C415.875,116.314,417.513,109.679,415.549,103.634z"/>
</g>
</svg>